<svg xmlns="http://www.w3.org/2000/svg" xmlns:xlink="http://www.w3.org/1999/xlink" id="dh_-_speakers" data-name="dh - speakers" viewBox="0 0 700 543"><defs><linearGradient id="linear-gradient" x1="62.949" x2="251.875" y1="93.761" y2="93.761" gradientTransform="matrix(-1, 0, 0, 1, 576.23137, 0)" gradientUnits="userSpaceOnUse"><stop offset="0" stop-color="#7accda"/><stop offset=".998" stop-color="#6e60f9"/></linearGradient><linearGradient id="linear-gradient-2" x1="55.481" x2="55.481" y1="164.48" y2="123.438" xlink:href="#linear-gradient"/><linearGradient id="linear-gradient-3" x1="48.013" x2="251.875" y1="73.24" y2="73.24" xlink:href="#linear-gradient"/><linearGradient id="linear-gradient-4" x1="281.336" x2="374.015" y1="146.783" y2="146.783" gradientUnits="userSpaceOnUse"><stop offset="0" stop-color="#7accda"/><stop offset="1" stop-color="#0ad05b"/></linearGradient><linearGradient id="linear-gradient-5" x1="244.494" x2="410.856" y1="234.713" y2="234.713" xlink:href="#linear-gradient-4"/><linearGradient id="linear-gradient-6" x1="266.968" x2="359.647" y1="146.783" y2="146.783" gradientUnits="userSpaceOnUse"><stop offset="0" stop-color="#0ad05b"/><stop offset="1" stop-color="#7accda"/></linearGradient><linearGradient id="linear-gradient-7" x1="230.126" x2="396.489" y1="234.713" y2="234.713" xlink:href="#linear-gradient-6"/><linearGradient id="linear-gradient-8" x1="161.869" x2="196.962" y1="397.018" y2="397.018" gradientUnits="userSpaceOnUse"><stop offset="0" stop-color="#f87216"/><stop offset="1" stop-color="#d24f93"/></linearGradient><linearGradient id="linear-gradient-9" x1="147.92" x2="210.912" y1="430.312" y2="430.312" xlink:href="#linear-gradient-8"/><linearGradient id="linear-gradient-10" x1="156.429" x2="191.522" y1="397.018" y2="397.018" xlink:href="#linear-gradient-8"/><linearGradient id="linear-gradient-11" x1="142.479" x2="205.472" y1="430.312" y2="430.312" xlink:href="#linear-gradient-8"/><linearGradient id="linear-gradient-12" x1="161.869" x2="196.962" y1="306.032" y2="306.032" xlink:href="#linear-gradient-8"/><linearGradient id="linear-gradient-13" x1="147.92" x2="210.912" y1="339.327" y2="339.327" xlink:href="#linear-gradient-8"/><linearGradient id="linear-gradient-14" x1="156.429" x2="191.522" y1="306.032" y2="306.032" xlink:href="#linear-gradient-8"/><linearGradient id="linear-gradient-15" x1="142.479" x2="205.472" y1="339.327" y2="339.327" xlink:href="#linear-gradient-8"/><linearGradient id="linear-gradient-16" x1="235.635" x2="271.728" y1="437.868" y2="437.868" gradientUnits="userSpaceOnUse"><stop offset="0" stop-color="#7dc5db"/><stop offset="1" stop-color="#6e60f9"/></linearGradient><linearGradient id="linear-gradient-17" x1="221.685" x2="285.677" y1="471.163" y2="471.163" xlink:href="#linear-gradient-16"/><linearGradient id="linear-gradient-18" x1="216.245" x2="280.237" y1="471.163" y2="471.163" xlink:href="#linear-gradient-16"/><linearGradient id="linear-gradient-19" x1="230.194" x2="266.288" y1="437.868" y2="437.868" xlink:href="#linear-gradient-16"/><linearGradient id="linear-gradient-20" x1="235.635" x2="271.728" y1="349.327" y2="349.327" xlink:href="#linear-gradient-16"/><linearGradient id="linear-gradient-21" x1="221.685" x2="285.677" y1="382.622" y2="382.622" xlink:href="#linear-gradient-16"/><linearGradient id="linear-gradient-22" x1="216.245" x2="280.237" y1="382.622" y2="382.622" xlink:href="#linear-gradient-16"/><linearGradient id="linear-gradient-23" x1="230.194" x2="266.288" y1="349.327" y2="349.327" xlink:href="#linear-gradient-16"/><linearGradient id="linear-gradient-24" x1="87.363" x2="123.456" y1="363.374" y2="363.374" xlink:href="#linear-gradient-16"/><linearGradient id="linear-gradient-25" x1="73.414" x2="137.406" y1="396.669" y2="396.669" xlink:href="#linear-gradient-16"/><linearGradient id="linear-gradient-26" x1="67.973" x2="131.966" y1="396.669" y2="396.669" xlink:href="#linear-gradient-16"/><linearGradient id="linear-gradient-27" x1="81.923" x2="118.015" y1="363.374" y2="363.374" xlink:href="#linear-gradient-16"/><linearGradient id="linear-gradient-28" x1="313.449" x2="348.542" y1="393.018" y2="393.018" xlink:href="#linear-gradient-8"/><linearGradient id="linear-gradient-29" x1="299.499" x2="362.492" y1="426.312" y2="426.312" xlink:href="#linear-gradient-8"/><linearGradient id="linear-gradient-30" x1="308.008" x2="343.101" y1="393.018" y2="393.018" xlink:href="#linear-gradient-8"/><linearGradient id="linear-gradient-31" x1="294.058" x2="357.051" y1="426.312" y2="426.312" xlink:href="#linear-gradient-8"/><linearGradient id="linear-gradient-32" x1="452.388" x2="454.806" y1="312.059" y2="312.059" gradientUnits="userSpaceOnUse"><stop offset="0" stop-color="#d24f93"/><stop offset="1" stop-color="#f87216"/></linearGradient><linearGradient id="linear-gradient-33" x1="286.301" x2="454.806" y1="315.094" y2="315.094" xlink:href="#linear-gradient-8"/><linearGradient id="linear-gradient-34" x1="287.997" x2="452.388" y1="321.515" y2="321.515" xlink:href="#linear-gradient-6"/><linearGradient id="linear-gradient-35" x1="286.301" x2="454.806" y1="292.154" y2="292.154" xlink:href="#linear-gradient-8"/><linearGradient id="linear-gradient-36" x1="409.891" x2="428.241" y1="342.759" y2="342.759" gradientTransform="matrix(1, 0, 0, 1, 0, 0)" xlink:href="#linear-gradient"/><linearGradient id="linear-gradient-37" x1="-1012.382" x2="-927.528" y1="296.664" y2="296.664" gradientTransform="matrix(-1, 0, 0, 1, -589.36626, 0)" xlink:href="#linear-gradient-32"/><linearGradient id="linear-gradient-38" x1="-950.444" x2="-924.323" y1="276.804" y2="276.804" gradientTransform="matrix(-1, 0, 0, 1, -589.36626, 0)" xlink:href="#linear-gradient-8"/><linearGradient id="linear-gradient-39" x1="-1442.321" x2="-1358.936" y1="163.295" y2="163.295" gradientTransform="matrix(-1, 0, 0, 1, -956.01194, 0)" xlink:href="#linear-gradient-8"/><linearGradient id="linear-gradient-40" x1="-1445.617" x2="-1445.617" y1="192.913" y2="177.988" gradientTransform="matrix(-1, 0, 0, 1, -956.01194, 0)" xlink:href="#linear-gradient-32"/><linearGradient id="linear-gradient-41" x1="-1448.913" x2="-1358.936" y1="155.832" y2="155.832" gradientTransform="matrix(-1, 0, 0, 1, -956.01194, 0)" xlink:href="#linear-gradient-32"/><linearGradient id="linear-gradient-42" x1="430.361" x2="460.914" y1="192.229" y2="192.229" xlink:href="#linear-gradient-8"/><linearGradient id="linear-gradient-43" x1="430.361" x2="456.261" y1="195.071" y2="195.071" xlink:href="#linear-gradient-32"/></defs><polygon fill="none" stroke="#21313c" stroke-linecap="round" stroke-linejoin="round" points="133.612 508.231 133.535 508.276 91.64 484.088 91.717 484.043 133.612 508.231"/><polygon fill="none" stroke="#21313c" stroke-linecap="round" stroke-linejoin="round" points="301.114 169.644 343.009 145.456 343.241 145.59 301.346 169.778 301.114 169.644"/><polygon fill="none" stroke="#21313c" stroke-linecap="round" stroke-linejoin="round" points="133.766 266.53 133.535 266.396 175.43 242.208 175.661 242.342 133.766 266.53"/><polygon fill="none" stroke="#21313c" stroke-linecap="round" stroke-linejoin="round" points="217.556 218.154 217.324 218.02 259.219 193.832 259.451 193.966 217.556 218.154"/><polygon fill="none" stroke="#21313c" stroke-linecap="round" stroke-linejoin="round" points="175.661 242.342 175.43 242.208 217.324 218.02 217.556 218.154 175.661 242.342"/><polygon fill="none" stroke="#21313c" stroke-linecap="round" stroke-linejoin="round" points="301.346 169.778 259.451 193.966 259.219 193.832 301.114 169.644 301.346 169.778"/><polygon fill="none" stroke="#21313c" stroke-linecap="round" stroke-linejoin="round" points="384.904 411.524 426.799 435.712 384.904 459.9 343.009 435.712 384.904 411.524"/><polygon fill="none" stroke="#21313c" stroke-linecap="round" stroke-linejoin="round" points="343.009 435.712 384.904 459.9 343.009 484.088 301.114 459.9 343.009 435.712"/><polygon fill="none" stroke="#21313c" stroke-linecap="round" stroke-linejoin="round" points="259.219 435.712 301.114 459.9 259.219 484.088 217.325 459.9 259.219 435.712"/><polygon fill="none" stroke="#21313c" stroke-linecap="round" stroke-linejoin="round" points="343.009 484.088 301.114 508.276 259.219 484.088 301.114 459.9 343.009 484.088"/><polygon fill="none" stroke="#21313c" stroke-linecap="round" stroke-linejoin="round" points="259.219 484.088 217.324 508.276 175.43 484.088 217.325 459.9 259.219 484.088"/><polygon fill="none" stroke="#21313c" stroke-linecap="round" stroke-linejoin="round" points="426.799 290.584 468.693 266.396 510.588 290.584 468.693 314.772 426.799 290.584"/><polygon fill="none" stroke="#21313c" stroke-linecap="round" stroke-linejoin="round" points="217.325 459.9 175.43 484.088 133.535 459.9 175.43 435.712 217.325 459.9"/><polygon fill="none" stroke="#21313c" stroke-linecap="round" stroke-linejoin="round" points="468.693 363.148 510.588 387.336 468.693 411.524 426.799 387.336 468.693 363.148"/><polygon fill="none" stroke="#21313c" stroke-linecap="round" stroke-linejoin="round" points="426.799 387.336 468.693 411.524 426.799 435.712 384.904 411.524 426.799 387.336"/><polygon fill="none" stroke="#21313c" stroke-linecap="round" stroke-linejoin="round" points="301.114 266.396 259.219 242.208 301.114 218.02 343.009 242.208 301.114 266.396"/><polygon fill="none" stroke="#21313c" stroke-linecap="round" stroke-linejoin="round" points="217.324 314.772 175.43 290.584 217.324 266.396 259.219 290.584 217.324 314.772"/><polygon fill="none" stroke="#21313c" stroke-linecap="round" stroke-linejoin="round" points="343.009 242.208 301.114 218.02 343.009 193.832 384.904 218.02 343.009 242.208"/><polygon fill="none" stroke="#21313c" stroke-linecap="round" stroke-linejoin="round" points="343.009 193.832 384.904 169.644 426.799 193.832 384.904 218.02 343.009 193.832"/><polygon fill="none" stroke="#21313c" stroke-linecap="round" stroke-linejoin="round" points="384.904 266.396 426.799 242.208 468.693 266.396 426.799 290.584 384.904 266.396"/><polygon fill="none" stroke="#21313c" stroke-linecap="round" stroke-linejoin="round" points="259.219 290.584 217.324 266.396 259.219 242.208 301.114 266.396 259.219 290.584"/><polygon fill="none" stroke="#21313c" stroke-linecap="round" stroke-linejoin="round" points="133.535 411.524 91.64 435.712 49.745 411.524 91.64 387.336 133.535 411.524"/><polygon fill="none" stroke="#21313c" stroke-linecap="round" stroke-linejoin="round" points="91.64 387.336 49.745 363.148 91.64 338.96 133.535 363.148 91.64 387.336"/><polygon fill="none" stroke="#21313c" stroke-linecap="round" stroke-linejoin="round" points="133.535 363.148 91.64 338.96 133.535 314.772 175.43 338.96 133.535 363.148"/><polygon fill="none" stroke="#21313c" stroke-linecap="round" stroke-linejoin="round" points="301.114 314.772 259.219 290.584 301.114 266.396 343.009 290.584 301.114 314.772"/><polygon fill="none" stroke="#21313c" stroke-linecap="round" stroke-linejoin="round" points="343.009 290.584 384.904 266.396 426.799 290.584 384.904 314.772 343.009 290.584"/><polygon fill="none" stroke="#21313c" stroke-linecap="round" stroke-linejoin="round" points="301.114 363.148 259.219 338.96 301.114 314.772 343.009 338.96 301.114 363.148"/><polygon fill="none" stroke="#21313c" stroke-linecap="round" stroke-linejoin="round" points="343.009 338.96 301.114 314.772 343.009 290.584 384.904 314.772 343.009 338.96"/><polygon fill="none" stroke="#21313c" stroke-linecap="round" stroke-linejoin="round" points="384.904 314.772 426.799 290.584 468.693 314.772 426.799 338.96 384.904 314.772"/><polygon fill="none" stroke="#21313c" stroke-linecap="round" stroke-linejoin="round" points="426.799 338.96 468.693 363.148 426.799 387.336 384.904 363.148 426.799 338.96"/><polygon fill="none" stroke="#21313c" stroke-linecap="round" stroke-linejoin="round" points="384.904 363.148 426.799 387.336 384.904 411.524 343.009 387.336 384.904 363.148"/><polygon fill="none" stroke="#21313c" stroke-linecap="round" stroke-linejoin="round" points="384.904 314.772 426.799 338.96 384.904 363.148 343.009 338.96 384.904 314.772"/><polygon fill="none" stroke="#21313c" stroke-linecap="round" stroke-linejoin="round" points="343.009 338.96 384.904 363.148 343.009 387.336 301.114 363.148 343.009 338.96"/><polygon fill="none" stroke="#21313c" stroke-linecap="round" stroke-linejoin="round" points="259.219 435.712 217.325 459.9 175.43 435.712 217.324 411.524 259.219 435.712"/><polygon fill="none" stroke="#21313c" stroke-linecap="round" stroke-linejoin="round" points="175.43 387.336 133.535 363.148 175.43 338.96 217.324 363.148 175.43 387.336"/><polygon fill="none" stroke="#21313c" stroke-linecap="round" stroke-linejoin="round" points="217.324 363.148 175.43 338.96 217.324 314.772 259.219 338.96 217.324 363.148"/><polygon fill="none" stroke="#21313c" stroke-linecap="round" stroke-linejoin="round" points="259.219 338.96 217.324 314.772 259.219 290.584 301.114 314.772 259.219 338.96"/><polygon fill="none" stroke="#21313c" stroke-linecap="round" stroke-linejoin="round" points="384.904 218.02 426.799 193.832 468.693 218.02 426.799 242.208 384.904 218.02"/><polygon fill="none" stroke="#21313c" stroke-linecap="round" stroke-linejoin="round" points="343.009 290.584 301.114 266.396 343.009 242.208 384.904 266.396 343.009 290.584"/><polygon fill="none" stroke="#21313c" stroke-linecap="round" stroke-linejoin="round" points="343.009 435.712 301.114 459.9 259.219 435.712 301.114 411.524 343.009 435.712"/><polygon fill="none" stroke="#21313c" stroke-linecap="round" stroke-linejoin="round" points="343.009 387.336 384.904 411.524 343.009 435.712 301.114 411.524 343.009 387.336"/><polygon fill="none" stroke="#21313c" stroke-linecap="round" stroke-linejoin="round" points="217.324 411.524 175.43 435.712 133.535 411.524 175.43 387.336 217.324 411.524"/><polygon fill="none" stroke="#21313c" stroke-linecap="round" stroke-linejoin="round" points="343.009 242.208 384.904 218.02 426.799 242.208 384.904 266.396 343.009 242.208"/><polygon fill="none" stroke="#21313c" stroke-linecap="round" stroke-linejoin="round" points="133.535 411.524 91.64 387.336 133.535 363.148 175.43 387.336 133.535 411.524"/><polygon fill="none" stroke="#21313c" stroke-linecap="round" stroke-linejoin="round" points="175.43 290.584 133.766 266.53 175.661 242.342 217.324 266.396 175.43 290.584"/><polygon fill="none" stroke="#21313c" stroke-linecap="round" stroke-linejoin="round" points="510.588 242.208 510.82 242.074 552.676 266.285 552.483 266.396 510.588 242.208"/><polygon fill="none" stroke="#21313c" stroke-linecap="round" stroke-linejoin="round" points="468.693 218.02 468.964 217.864 510.82 242.074 510.588 242.208 468.693 218.02"/><polygon fill="none" stroke="#21313c" stroke-linecap="round" stroke-linejoin="round" points="552.483 266.396 552.676 266.285 594.533 290.495 594.378 290.584 552.483 266.396"/><polygon fill="none" stroke="#21313c" stroke-linecap="round" stroke-linejoin="round" points="217.324 266.396 175.661 242.342 217.556 218.154 259.219 242.208 217.324 266.396"/><polygon fill="none" stroke="#21313c" stroke-linecap="round" stroke-linejoin="round" points="636.273 314.772 636.389 314.705 678.245 338.915 678.168 338.96 636.273 314.772"/><polygon fill="none" stroke="#21313c" stroke-linecap="round" stroke-linejoin="round" points="426.799 193.832 427.108 193.654 468.964 217.864 468.693 218.02 426.799 193.832"/><polygon fill="none" stroke="#21313c" stroke-linecap="round" stroke-linejoin="round" points="301.114 218.02 259.451 193.966 301.346 169.778 343.009 193.832 301.114 218.02"/><polygon fill="none" stroke="#21313c" stroke-linecap="round" stroke-linejoin="round" points="259.219 242.208 217.556 218.154 259.451 193.966 301.114 218.02 259.219 242.208"/><polygon fill="none" stroke="#21313c" stroke-linecap="round" stroke-linejoin="round" points="384.904 169.644 385.251 169.443 427.108 193.654 426.799 193.832 384.904 169.644"/><polygon fill="none" stroke="#21313c" stroke-linecap="round" stroke-linejoin="round" points="343.241 145.59 343.627 145.367 385.251 169.443 384.904 169.644 343.241 145.59"/><polygon fill="none" stroke="#21313c" stroke-linecap="round" stroke-linejoin="round" points="343.009 193.832 301.346 169.778 343.241 145.59 384.904 169.644 343.009 193.832"/><polygon fill="none" stroke="#21313c" stroke-linecap="round" stroke-linejoin="round" points="594.378 290.584 594.533 290.495 636.389 314.705 636.273 314.772 594.378 290.584"/><polygon fill="none" stroke="#21313c" stroke-linecap="round" stroke-linejoin="round" points="384.904 508.276 385.135 508.41 343.241 532.598 343.009 532.464 384.904 508.276"/><polygon fill="none" stroke="#21313c" stroke-linecap="round" stroke-linejoin="round" points="426.799 484.088 427.03 484.222 385.135 508.41 384.904 508.276 426.799 484.088"/><polygon fill="none" stroke="#21313c" stroke-linecap="round" stroke-linejoin="round" points="678.168 338.96 678.4 339.094 636.505 363.282 636.273 363.148 678.168 338.96"/><polygon fill="none" stroke="#21313c" stroke-linecap="round" stroke-linejoin="round" points="636.273 363.148 636.505 363.282 594.61 387.47 594.378 387.336 636.273 363.148"/><polygon fill="none" stroke="#21313c" stroke-linecap="round" stroke-linejoin="round" points="594.378 387.336 594.61 387.47 552.715 411.658 552.483 411.524 594.378 387.336"/><polygon fill="none" stroke="#21313c" stroke-linecap="round" stroke-linejoin="round" points="468.693 459.9 468.925 460.034 427.03 484.222 426.799 484.088 468.693 459.9"/><polygon fill="none" stroke="#21313c" stroke-linecap="round" stroke-linejoin="round" points="552.483 411.524 552.715 411.658 510.82 435.846 510.588 435.712 552.483 411.524"/><polygon fill="none" stroke="#21313c" stroke-linecap="round" stroke-linejoin="round" points="510.588 435.712 510.82 435.846 468.925 460.034 468.693 459.9 510.588 435.712"/><polygon fill="none" stroke="#21313c" stroke-linecap="round" stroke-linejoin="round" points="468.693 411.524 510.588 435.712 468.693 459.9 426.799 435.712 468.693 411.524"/><polygon fill="none" stroke="#21313c" stroke-linecap="round" stroke-linejoin="round" points="510.588 387.336 552.483 411.524 510.588 435.712 468.693 411.524 510.588 387.336"/><polygon fill="none" stroke="#21313c" stroke-linecap="round" stroke-linejoin="round" points="552.483 363.148 594.378 387.336 552.483 411.524 510.588 387.336 552.483 363.148"/><polygon fill="none" stroke="#21313c" stroke-linecap="round" stroke-linejoin="round" points="343.009 484.088 384.904 508.276 343.009 532.464 301.114 508.276 343.009 484.088"/><polygon fill="none" stroke="#21313c" stroke-linecap="round" stroke-linejoin="round" points="384.904 459.9 426.799 484.088 384.904 508.276 343.009 484.088 384.904 459.9"/><polygon fill="none" stroke="#21313c" stroke-linecap="round" stroke-linejoin="round" points="426.799 435.712 468.693 459.9 426.799 484.088 384.904 459.9 426.799 435.712"/><polygon fill="none" stroke="#21313c" stroke-linecap="round" stroke-linejoin="round" points="510.588 290.584 552.483 266.396 594.378 290.584 552.483 314.772 510.588 290.584"/><polygon fill="none" stroke="#21313c" stroke-linecap="round" stroke-linejoin="round" points="468.693 266.396 510.588 242.208 552.483 266.396 510.588 290.584 468.693 266.396"/><polygon fill="none" stroke="#21313c" stroke-linecap="round" stroke-linejoin="round" points="552.483 314.772 594.378 290.584 636.273 314.772 594.378 338.96 552.483 314.772"/><polygon fill="none" stroke="#21313c" stroke-linecap="round" stroke-linejoin="round" points="594.378 338.96 636.273 363.148 594.378 387.336 552.483 363.148 594.378 338.96"/><polygon fill="none" stroke="#21313c" stroke-linecap="round" stroke-linejoin="round" points="636.273 314.772 678.168 338.96 636.273 363.148 594.378 338.96 636.273 314.772"/><polygon fill="none" stroke="#21313c" stroke-linecap="round" stroke-linejoin="round" points="426.799 242.208 468.693 218.02 510.588 242.208 468.693 266.396 426.799 242.208"/><polygon fill="none" stroke="#21313c" stroke-linecap="round" stroke-linejoin="round" points="175.43 484.088 133.612 508.231 91.717 484.043 133.535 459.9 175.43 484.088"/><polygon fill="#21313c" stroke="#0c1c27" stroke-linecap="round" stroke-linejoin="round" points="594.017 267.625 594.017 294.518 385.46 412.474 179.462 293.541 179.462 266.648 594.017 267.625"/><polygon fill="#21313c" stroke="#0c1c27" stroke-linecap="round" stroke-linejoin="round" points="385.46 147.715 594.017 267.625 385.46 385.581 179.462 266.648 385.46 147.715"/><line x1="385.46" x2="385.46" y1="385.581" y2="412.474" fill="#21313c" stroke="#0c1c27" stroke-linecap="round" stroke-linejoin="round"/><polygon fill="#21313c" stroke="#0c1c27" stroke-linecap="round" stroke-linejoin="round" points="324.357 55.404 323.873 193.489 512.799 302.565 513.282 164.48 324.357 55.404"/><polygon fill="#21313c" stroke="#0c1c27" stroke-linecap="round" stroke-linejoin="round" points="512.799 302.565 527.735 293.885 528.084 155.878 513.282 164.48 512.799 302.565"/><polygon fill="url(#linear-gradient)" stroke="#0c1c27" stroke-linecap="round" stroke-linejoin="round" points="513.282 132.118 324.357 23.042 324.357 55.404 513.282 164.48 513.282 132.118"/><polyline fill="url(#linear-gradient-2)" stroke="#0c1c27" stroke-linecap="round" stroke-linejoin="round" points="513.282 132.118 528.218 123.438 528.084 155.878 513.282 164.48 513.282 132.118"/><polygon fill="url(#linear-gradient-3)" stroke="#0c1c27" stroke-linecap="round" stroke-linejoin="round" points="528.218 123.438 513.282 132.118 324.357 23.042 339.293 14.362 528.218 123.438"/><circle cx="327.675" cy="146.783" r="46.34" fill="url(#linear-gradient-4)" stroke="#0c1c27" stroke-linecap="round" stroke-linejoin="round"/><path fill="url(#linear-gradient-5)" fill-rule="evenodd" stroke="#0c1c27" stroke-linecap="round" stroke-linejoin="round" d="M244.4944,276.30387a83.181,83.181,0,0,1,166.36209,0Z"/><circle cx="313.308" cy="146.783" r="46.34" fill="url(#linear-gradient-6)" stroke="#0c1c27" stroke-linecap="round" stroke-linejoin="round"/><path fill="url(#linear-gradient-7)" fill-rule="evenodd" stroke="#0c1c27" stroke-linecap="round" stroke-linejoin="round" d="M230.12647,276.30387a83.181,83.181,0,1,1,166.36208,0Z"/><circle cx="179.416" cy="397.018" r="17.546" fill="url(#linear-gradient-8)" stroke="#0c1c27" stroke-linecap="round" stroke-linejoin="round"/><path fill="url(#linear-gradient-9)" fill-rule="evenodd" stroke="#0c1c27" stroke-linecap="round" stroke-linejoin="round" d="M147.91952,446.06052a31.4964,31.4964,0,0,1,62.9928,0Z"/><circle cx="173.976" cy="397.018" r="17.546" fill="url(#linear-gradient-10)" stroke="#0c1c27" stroke-linecap="round" stroke-linejoin="round"/><path fill="url(#linear-gradient-11)" fill-rule="evenodd" stroke="#0c1c27" stroke-linecap="round" stroke-linejoin="round" d="M142.47912,446.06052a31.4964,31.4964,0,0,1,62.9928,0Z"/><circle cx="179.416" cy="306.032" r="17.546" fill="url(#linear-gradient-12)" stroke="#0c1c27" stroke-linecap="round" stroke-linejoin="round"/><path fill="url(#linear-gradient-13)" fill-rule="evenodd" stroke="#0c1c27" stroke-linecap="round" stroke-linejoin="round" d="M147.91952,355.075a31.4964,31.4964,0,1,1,62.9928,0Z"/><circle cx="173.976" cy="306.032" r="17.546" fill="url(#linear-gradient-14)" stroke="#0c1c27" stroke-linecap="round" stroke-linejoin="round"/><path fill="url(#linear-gradient-15)" fill-rule="evenodd" stroke="#0c1c27" stroke-linecap="round" stroke-linejoin="round" d="M142.47912,355.075a31.4964,31.4964,0,1,1,62.9928,0Z"/><path fill="url(#linear-gradient-16)" fill-rule="evenodd" d="M253.6814,455.91468a18.04639,18.04639,0,1,1,18.04687-18.04687A18.0672,18.0672,0,0,1,253.6814,455.91468Z"/><path fill="#0c1c27" d="M253.6814,420.32142a17.54639,17.54639,0,1,1-17.54651,17.54639,17.54656,17.54656,0,0,1,17.54651-17.54639m0-1a18.54639,18.54639,0,1,0,18.54651,18.54639,18.56744,18.56744,0,0,0-18.54651-18.54639Z"/><path fill="url(#linear-gradient-17)" fill-rule="evenodd" d="M222.1853,487.41078a.49972.49972,0,0,1-.5-.5,31.99609,31.99609,0,1,1,63.99219,0,.49972.49972,0,0,1-.5.5Z"/><path fill="#0c1c27" d="M253.6814,455.4142a31.49645,31.49645,0,0,1,31.49634,31.49658h-62.9928A31.49656,31.49656,0,0,1,253.6814,455.4142m0-1a32.53348,32.53348,0,0,0-32.49646,32.49658,1.00005,1.00005,0,0,0,1,1h62.9928a1.00006,1.00006,0,0,0,1-1A32.53338,32.53338,0,0,0,253.6814,454.4142Z"/><path fill="url(#linear-gradient-18)" fill-rule="evenodd" d="M216.74488,487.41078a.49972.49972,0,0,1-.5-.5,31.99609,31.99609,0,1,1,63.99218,0,.49972.49972,0,0,1-.5.5Z"/><path fill="#0c1c27" d="M248.241,455.4142a31.49656,31.49656,0,0,1,31.49646,31.49658h-62.9928A31.49645,31.49645,0,0,1,248.241,455.4142m0-1a32.53338,32.53338,0,0,0-32.49634,32.49658,1.00006,1.00006,0,0,0,1,1h62.9928a1.00005,1.00005,0,0,0,1-1A32.53348,32.53348,0,0,0,248.241,454.4142Z"/><path fill="url(#linear-gradient-19)" fill-rule="evenodd" d="M248.241,455.91468a18.04639,18.04639,0,1,1,18.04687-18.04687A18.0672,18.0672,0,0,1,248.241,455.91468Z"/><path fill="#0c1c27" d="M248.241,420.32142a17.54639,17.54639,0,1,1-17.54651,17.54639A17.54656,17.54656,0,0,1,248.241,420.32142m0-1a18.54639,18.54639,0,1,0,18.54651,18.54639A18.56744,18.56744,0,0,0,248.241,419.32142Z"/><circle cx="253.681" cy="349.327" r="18.047" fill="url(#linear-gradient-20)"/><path fill="#0c1c27" d="M253.6814,331.78041a17.54639,17.54639,0,1,1-17.54651,17.54638,17.54625,17.54625,0,0,1,17.54651-17.54638m0-1a18.54639,18.54639,0,1,0,18.54651,18.54638,18.56743,18.56743,0,0,0-18.54651-18.54638Z"/><path fill="url(#linear-gradient-21)" fill-rule="evenodd" d="M222.1853,398.86976a.49972.49972,0,0,1-.5-.5,31.9961,31.9961,0,0,1,63.99219,0,.49971.49971,0,0,1-.5.5Z"/><path fill="#0c1c27" d="M253.6814,366.87318a31.49645,31.49645,0,0,1,31.49634,31.49658h-62.9928a31.49656,31.49656,0,0,1,31.49646-31.49658m0-1a32.53348,32.53348,0,0,0-32.49646,32.49658,1,1,0,0,0,1,1h62.9928a1.00005,1.00005,0,0,0,1-1,32.53338,32.53338,0,0,0-32.49634-32.49658Z"/><path fill="url(#linear-gradient-22)" fill-rule="evenodd" d="M216.74488,398.86976a.49971.49971,0,0,1-.5-.5,31.99609,31.99609,0,1,1,63.99218,0,.49971.49971,0,0,1-.5.5Z"/><path fill="#0c1c27" d="M248.241,366.87318a31.49656,31.49656,0,0,1,31.49646,31.49658h-62.9928A31.49645,31.49645,0,0,1,248.241,366.87318m0-1a32.53338,32.53338,0,0,0-32.49634,32.49658,1.00005,1.00005,0,0,0,1,1h62.9928a1,1,0,0,0,1-1A32.53348,32.53348,0,0,0,248.241,365.87318Z"/><circle cx="248.241" cy="349.327" r="18.047" fill="url(#linear-gradient-23)"/><path fill="#0c1c27" d="M248.241,331.78041a17.54639,17.54639,0,1,1-17.54651,17.54638A17.54625,17.54625,0,0,1,248.241,331.78041m0-1a18.54639,18.54639,0,1,0,18.54651,18.54638A18.56743,18.56743,0,0,0,248.241,330.78041Z"/><path fill="url(#linear-gradient-24)" fill-rule="evenodd" d="M105.40991,381.42054a18.04639,18.04639,0,1,1,18.0459-18.04687A18.06719,18.06719,0,0,1,105.40991,381.42054Z"/><path fill="#0c1c27" d="M105.40979,345.82728a17.54639,17.54639,0,1,1-17.54651,17.54639,17.54655,17.54655,0,0,1,17.54651-17.54639m0-1a18.54639,18.54639,0,1,0,18.54651,18.54639,18.56744,18.56744,0,0,0-18.54651-18.54639Z"/><path fill="url(#linear-gradient-25)" fill-rule="evenodd" d="M73.91382,412.91664a.49972.49972,0,0,1-.5-.5,31.99609,31.99609,0,1,1,63.99219,0,.49972.49972,0,0,1-.5.5Z"/><path fill="#0c1c27" d="M105.40979,380.92005a31.49656,31.49656,0,0,1,31.49646,31.49659H73.91333a31.49656,31.49656,0,0,1,31.49646-31.49659m0-1a32.53349,32.53349,0,0,0-32.49646,32.49659,1.00006,1.00006,0,0,0,1,1h62.99292a1.00005,1.00005,0,0,0,1-1,32.53349,32.53349,0,0,0-32.49646-32.49659Z"/><path fill="url(#linear-gradient-26)" fill-rule="evenodd" d="M68.47339,412.91664a.49972.49972,0,0,1-.5-.5,31.99609,31.99609,0,1,1,63.99219,0,.49972.49972,0,0,1-.5.5Z"/><path fill="#0c1c27" d="M99.96936,380.92005a31.49656,31.49656,0,0,1,31.49646,31.49659H68.473a31.49654,31.49654,0,0,1,31.49634-31.49659m0-1A32.53339,32.53339,0,0,0,67.473,412.41664a1.00006,1.00006,0,0,0,1,1h62.9928a1.00005,1.00005,0,0,0,1-1,32.53349,32.53349,0,0,0-32.49646-32.49659Z"/><path fill="url(#linear-gradient-27)" fill-rule="evenodd" d="M99.96948,381.42054a18.04639,18.04639,0,1,1,18.0459-18.04687A18.06719,18.06719,0,0,1,99.96948,381.42054Z"/><path fill="#0c1c27" d="M99.96936,345.82728a17.54639,17.54639,0,1,1-17.54651,17.54639,17.54655,17.54655,0,0,1,17.54651-17.54639m0-1a18.54639,18.54639,0,1,0,18.54651,18.54639,18.56744,18.56744,0,0,0-18.54651-18.54639Z"/><circle cx="330.995" cy="393.018" r="17.546" fill="url(#linear-gradient-28)" stroke="#0c1c27" stroke-linecap="round" stroke-linejoin="round"/><path fill="url(#linear-gradient-29)" fill-rule="evenodd" stroke="#0c1c27" stroke-linecap="round" stroke-linejoin="round" d="M299.49887,442.06052a31.4964,31.4964,0,0,1,62.9928,0Z"/><circle cx="325.555" cy="393.018" r="17.546" fill="url(#linear-gradient-30)" stroke="#0c1c27" stroke-linecap="round" stroke-linejoin="round"/><path fill="url(#linear-gradient-31)" fill-rule="evenodd" stroke="#0c1c27" stroke-linecap="round" stroke-linejoin="round" d="M294.05846,442.06052a31.49641,31.49641,0,0,1,62.99281,0Z"/><rect width="2.418" height="23.922" x="452.388" y="300.098" fill="url(#linear-gradient-32)" stroke="#0c1c27" stroke-linecap="round" stroke-linejoin="round"/><path fill="url(#linear-gradient-33)" stroke="#0c1c27" stroke-linecap="round" stroke-linejoin="round" d="M453.93625,322.32586a1.28253,1.28253,0,0,1,.01365,2.4241l-66.67272,38.492a4.62812,4.62812,0,0,1-4.185,0l-95.92054-55.37975a1.28253,1.28253,0,0,1-.01363-2.42411l66.67272-38.492a4.62814,4.62814,0,0,1,4.185,0Z"/><path fill="url(#linear-gradient-34)" stroke="#0c1c27" stroke-linecap="round" stroke-linejoin="round" d="M451.53146,301.56079,387.27715,338.909a4.62794,4.62794,0,0,1-4.185,0L288.885,284.47732a1.47839,1.47839,0,0,1-.87013-1.22055l-.01825,20.36345a1.47846,1.47846,0,0,0,.87017,1.22055l94.2071,54.43171a4.62811,4.62811,0,0,0,4.185,0l64.25426-37.34819a1.46692,1.46692,0,0,0,.8565-1.20356l.0182-20.36345A1.4669,1.4669,0,0,1,451.53146,301.56079Z"/><path fill="url(#linear-gradient-35)" stroke="#0c1c27" stroke-linecap="round" stroke-linejoin="round" d="M453.93625,299.38608a1.28253,1.28253,0,0,1,.01365,2.42411l-66.67272,38.492a4.62812,4.62812,0,0,1-4.185,0l-95.92054-55.37976a1.28253,1.28253,0,0,1-.01363-2.42411l66.67272-38.492a4.62811,4.62811,0,0,1,4.185,0Z"/><path fill="none" stroke="#0c1c27" stroke-linecap="round" stroke-linejoin="round" d="M288.86683,300.12409l94.2071,54.43171a4.62817,4.62817,0,0,0,4.185,0l64.25426-37.3482"/><polygon fill="url(#linear-gradient-36)" stroke="#0c1c27" stroke-linecap="round" stroke-linejoin="round" points="409.891 337.204 428.241 326.437 428.241 348.314 419.815 344.903 409.891 359.081 409.891 337.204"/><path fill="none" stroke="#0c1c27" stroke-linecap="round" stroke-linejoin="round" d="M288.86683,291.32466l94.2071,54.43172a4.62817,4.62817,0,0,0,4.185,0l64.25426-37.3482"/><path fill="none" stroke="#0c1c27" stroke-linecap="round" stroke-linejoin="round" d="M288.86683,295.72438l94.2071,54.43171a4.62817,4.62817,0,0,0,4.185,0l64.25426-37.3482"/><path fill="url(#linear-gradient-37)" stroke="#0c1c27" stroke-linecap="round" stroke-linejoin="round" d="M338.92408,297.0011a1.12383,1.12383,0,0,0-.012,2.12415l37.9594,21.19019a4.05545,4.05545,0,0,0,3.66717,0l41.71462-23.98823a1.12383,1.12383,0,0,0,.01194-2.12416l-37.9594-21.19019a4.05543,4.05543,0,0,0-3.66715,0Z"/><line x1="361.078" x2="334.957" y1="269.128" y2="284.481" fill="url(#linear-gradient-38)" stroke="#0c1c27" stroke-linecap="round" stroke-linejoin="round"/><polygon fill="#21313c" stroke="#0c1c27" stroke-linecap="round" stroke-linejoin="round" points="402.924 144.771 402.71 210.856 486.095 258.998 486.309 192.913 402.924 144.771"/><polygon fill="#21313c" stroke="#0c1c27" stroke-linecap="round" stroke-linejoin="round" points="486.095 258.998 492.688 255.167 492.842 189.117 486.309 192.913 486.095 258.998"/><polygon fill="url(#linear-gradient-39)" stroke="#0c1c27" stroke-linecap="round" stroke-linejoin="round" points="486.309 181.819 402.924 133.676 402.924 144.771 486.309 192.913 486.309 181.819"/><polyline fill="url(#linear-gradient-40)" stroke="#0c1c27" stroke-linecap="round" stroke-linejoin="round" points="486.309 181.819 492.901 177.988 492.842 189.117 486.309 192.913 486.309 181.819"/><polygon fill="url(#linear-gradient-41)" stroke="#0c1c27" stroke-linecap="round" stroke-linejoin="round" points="409.516 129.845 413.643 132.228 420.97 136.458 426.876 139.868 430.175 141.773 433.075 143.447 433.075 143.447 469.028 164.204 469.028 164.204 475.87 168.155 482.26 171.844 485.56 173.749 488.46 175.424 488.46 175.424 492.901 177.988 486.309 181.819 472.693 173.958 465.678 169.907 418.207 142.5 410.293 137.931 402.924 133.676 409.516 129.845"/><polygon fill="url(#linear-gradient-42)" stroke="#0c1c27" stroke-linecap="round" stroke-linejoin="round" points="435.014 173.399 460.914 206.869 456.261 209.907 434.381 211.059 430.361 176.437 435.014 173.399"/><polygon fill="url(#linear-gradient-43)" stroke="#0c1c27" stroke-linecap="round" stroke-linejoin="round" points="430.361 176.437 456.261 209.907 430.361 213.706 430.361 176.437"/><ellipse cx="336.874" cy="46.524" fill="none" stroke="#0c1c27" stroke-linecap="round" stroke-linejoin="round" rx="3.019" ry="4.953" transform="translate(42.71647 217.16986) rotate(-37.98185)"/><ellipse cx="348.609" cy="53.359" fill="none" stroke="#0c1c27" stroke-linecap="round" stroke-linejoin="round" rx="3.019" ry="4.953" transform="translate(40.99566 225.8389) rotate(-37.98185)"/><ellipse cx="360.343" cy="60.193" fill="none" stroke="#0c1c27" stroke-linecap="round" stroke-linejoin="round" rx="3.019" ry="4.953" transform="translate(39.27485 234.50795) rotate(-37.98185)"/><polygon fill="#21313c" stroke="#0c1c27" stroke-linecap="round" stroke-linejoin="round" stroke-width=".499" points="546.116 186.816 575.993 223.956 546.003 226.533 546.116 186.816"/><polygon fill="#21313c" stroke="#0c1c27" stroke-linecap="round" stroke-linejoin="round" stroke-width=".499" points="546.116 186.816 548.461 185.453 578.338 222.593 575.993 223.956 546.116 186.816"/><polygon fill="#21313c" stroke="#0c1c27" stroke-linecap="round" stroke-linejoin="round" stroke-width=".499" points="509.948 363.841 539.825 400.981 509.836 403.558 509.948 363.841"/><polygon fill="#21313c" stroke="#0c1c27" stroke-linecap="round" stroke-linejoin="round" stroke-width=".499" points="509.948 363.841 512.294 362.478 542.171 399.618 539.825 400.981 509.948 363.841"/><polygon fill="#21313c" stroke="#0c1c27" stroke-linecap="round" stroke-linejoin="round" stroke-width=".499" points="189.417 147.497 219.294 184.637 189.304 187.214 189.417 147.497"/><polygon fill="#21313c" stroke="#0c1c27" stroke-linecap="round" stroke-linejoin="round" stroke-width=".499" points="189.417 147.497 191.763 146.134 221.639 183.274 219.294 184.637 189.417 147.497"/></svg>