<svg xmlns="http://www.w3.org/2000/svg" xmlns:xlink="http://www.w3.org/1999/xlink" id="dh_-_speakers" data-name="dh - speakers" viewBox="0 0 380 380"><defs><clipPath id="clip-path"><rect width="380" height="380" fill="none"/></clipPath><linearGradient id="linear-gradient" x1="178.089" x2="324.065" y1="174.323" y2="174.323" gradientUnits="userSpaceOnUse"><stop offset="0" stop-color="#0ad05b"/><stop offset="1" stop-color="#7accda"/></linearGradient><linearGradient id="linear-gradient-2" x1="178.07" x2="324.065" y1="197.905" y2="197.905" gradientUnits="userSpaceOnUse"><stop offset="0" stop-color="#7dc5db"/><stop offset=".495" stop-color="#0ad05b"/><stop offset=".728" stop-color="#7accda"/><stop offset="1" stop-color="#0ad05b"/></linearGradient><linearGradient id="linear-gradient-3" x1="105.819" x2="210.65" y1="122.826" y2="122.826" xlink:href="#linear-gradient"/><linearGradient id="linear-gradient-4" x1="50.484" x2="237.723" y1="149.176" y2="149.176" xlink:href="#linear-gradient"/><linearGradient id="linear-gradient-5" x1="50.466" x2="237.723" y1="188.787" y2="188.787" xlink:href="#linear-gradient-2"/><linearGradient id="linear-gradient-6" x1="251.067" x2="323.837" y1="93.725" y2="93.725" gradientUnits="userSpaceOnUse"><stop offset="0" stop-color="#7accda"/><stop offset="1" stop-color="#0ad05b"/></linearGradient><linearGradient id="linear-gradient-7" x1="255.225" x2="340.843" y1="41.552" y2="127.171" gradientUnits="userSpaceOnUse"><stop offset="0" stop-color="#0ad05b"/><stop offset=".578" stop-color="#7accda"/><stop offset=".591" stop-color="#6bcdc9"/><stop offset=".627" stop-color="#48cea2"/><stop offset=".662" stop-color="#2dcf83"/><stop offset=".696" stop-color="#1acf6d"/><stop offset=".729" stop-color="#0ed060"/><stop offset=".759" stop-color="#0ad05b"/><stop offset="1" stop-color="#7dc5db"/></linearGradient><linearGradient id="linear-gradient-8" x1="203.788" x2="205.362" y1="159.146" y2="159.146" gradientUnits="userSpaceOnUse"><stop offset="0" stop-color="#d24f93"/><stop offset="1" stop-color="#f87216"/></linearGradient><linearGradient id="linear-gradient-9" x1="95.637" x2="205.362" y1="161.122" y2="161.122" gradientUnits="userSpaceOnUse"><stop offset="0" stop-color="#f87216"/><stop offset="1" stop-color="#d24f93"/></linearGradient><linearGradient id="linear-gradient-10" x1="96.741" x2="203.788" y1="165.303" y2="165.303" xlink:href="#linear-gradient"/><linearGradient id="linear-gradient-11" x1="95.637" x2="205.362" y1="146.184" y2="146.184" xlink:href="#linear-gradient-9"/><linearGradient id="linear-gradient-12" x1="176.115" x2="188.064" y1="179.137" y2="179.137" gradientUnits="userSpaceOnUse"><stop offset="0" stop-color="#7accda"/><stop offset=".998" stop-color="#6e60f9"/></linearGradient><linearGradient id="linear-gradient-13" x1="322.151" x2="377.405" y1="149.121" y2="149.121" gradientTransform="matrix(-1, 0, 0, 1, 506.81196, 0)" xlink:href="#linear-gradient-8"/><linearGradient id="linear-gradient-14" x1="362.482" x2="379.492" y1="136.189" y2="136.189" gradientTransform="matrix(-1, 0, 0, 1, 506.81196, 0)" xlink:href="#linear-gradient-9"/></defs><g clip-path="url(#clip-path)"><polygon fill="none" stroke="#21313c" stroke-linecap="round" stroke-linejoin="round" points="183.313 193.261 216.422 174.145 216.605 174.251 183.496 193.366 183.313 193.261"/><polygon fill="none" stroke="#21313c" stroke-linecap="round" stroke-linejoin="round" points="51.06 269.828 50.877 269.723 83.986 250.607 84.169 250.713 51.06 269.828"/><polygon fill="none" stroke="#21313c" stroke-linecap="round" stroke-linejoin="round" points="117.278 231.597 117.095 231.492 150.204 212.376 150.387 212.482 117.278 231.597"/><polygon fill="none" stroke="#21313c" stroke-linecap="round" stroke-linejoin="round" points="84.169 250.713 83.986 250.607 117.095 231.492 117.278 231.597 84.169 250.713"/><polygon fill="none" stroke="#21313c" stroke-linecap="round" stroke-linejoin="round" points="183.496 193.366 150.387 212.482 150.204 212.376 183.313 193.261 183.496 193.366"/><polygon fill="none" stroke="#21313c" stroke-linecap="round" stroke-linejoin="round" points="282.64 288.838 315.749 269.723 348.858 288.838 315.749 307.954 282.64 288.838"/><polygon fill="none" stroke="#21313c" stroke-linecap="round" stroke-linejoin="round" points="315.749 346.185 348.858 365.3 315.749 384.416 282.64 365.3 315.749 346.185"/><polygon fill="none" stroke="#21313c" stroke-linecap="round" stroke-linejoin="round" points="282.64 365.3 315.749 384.416 282.64 403.531 249.531 384.416 282.64 365.3"/><polygon fill="none" stroke="#21313c" stroke-linecap="round" stroke-linejoin="round" points="183.313 269.723 150.204 250.607 183.313 231.492 216.422 250.607 183.313 269.723"/><polygon fill="none" stroke="#21313c" stroke-linecap="round" stroke-linejoin="round" points="117.095 307.954 83.986 288.838 117.095 269.723 150.204 288.838 117.095 307.954"/><polygon fill="none" stroke="#21313c" stroke-linecap="round" stroke-linejoin="round" points="216.422 250.607 183.313 231.492 216.422 212.376 249.531 231.492 216.422 250.607"/><polygon fill="none" stroke="#21313c" stroke-linecap="round" stroke-linejoin="round" points="216.422 212.376 249.531 193.261 282.64 212.376 249.531 231.492 216.422 212.376"/><polygon fill="none" stroke="#21313c" stroke-linecap="round" stroke-linejoin="round" points="249.531 269.723 282.64 250.607 315.749 269.723 282.64 288.838 249.531 269.723"/><polygon fill="none" stroke="#21313c" stroke-linecap="round" stroke-linejoin="round" points="150.204 288.838 117.095 269.723 150.204 250.607 183.313 269.723 150.204 288.838"/><polygon fill="none" stroke="#21313c" stroke-linecap="round" stroke-linejoin="round" points="50.877 346.185 17.768 327.069 50.877 307.954 83.986 327.069 50.877 346.185"/><polygon fill="none" stroke="#21313c" stroke-linecap="round" stroke-linejoin="round" points="183.313 307.954 150.204 288.838 183.313 269.723 216.422 288.838 183.313 307.954"/><polygon fill="none" stroke="#21313c" stroke-linecap="round" stroke-linejoin="round" points="216.422 288.838 249.531 269.723 282.64 288.838 249.531 307.954 216.422 288.838"/><polygon fill="none" stroke="#21313c" stroke-linecap="round" stroke-linejoin="round" points="183.313 346.185 150.204 327.069 183.313 307.954 216.422 327.069 183.313 346.185"/><polygon fill="none" stroke="#21313c" stroke-linecap="round" stroke-linejoin="round" points="216.422 327.069 183.313 307.954 216.422 288.838 249.531 307.954 216.422 327.069"/><polygon fill="none" stroke="#21313c" stroke-linecap="round" stroke-linejoin="round" points="249.531 307.954 282.64 288.838 315.749 307.954 282.64 327.069 249.531 307.954"/><polygon fill="none" stroke="#21313c" stroke-linecap="round" stroke-linejoin="round" points="282.64 327.069 315.749 346.185 282.64 365.3 249.531 346.185 282.64 327.069"/><polygon fill="none" stroke="#21313c" stroke-linecap="round" stroke-linejoin="round" points="249.531 346.185 282.64 365.3 249.531 384.416 216.422 365.3 249.531 346.185"/><polygon fill="none" stroke="#21313c" stroke-linecap="round" stroke-linejoin="round" points="249.531 307.954 282.64 327.069 249.531 346.185 216.422 327.069 249.531 307.954"/><polygon fill="none" stroke="#21313c" stroke-linecap="round" stroke-linejoin="round" points="216.422 327.069 249.531 346.185 216.422 365.3 183.313 346.185 216.422 327.069"/><polygon fill="none" stroke="#21313c" stroke-linecap="round" stroke-linejoin="round" points="83.986 365.3 50.877 346.185 83.986 327.069 117.095 346.185 83.986 365.3"/><polygon fill="none" stroke="#21313c" stroke-linecap="round" stroke-linejoin="round" points="117.095 346.185 83.986 327.069 117.095 307.954 150.204 327.069 117.095 346.185"/><polygon fill="none" stroke="#21313c" stroke-linecap="round" stroke-linejoin="round" points="150.204 327.069 117.095 307.954 150.204 288.838 183.313 307.954 150.204 327.069"/><polygon fill="none" stroke="#21313c" stroke-linecap="round" stroke-linejoin="round" points="249.531 231.492 282.64 212.376 315.749 231.492 282.64 250.607 249.531 231.492"/><polygon fill="none" stroke="#21313c" stroke-linecap="round" stroke-linejoin="round" points="216.422 288.838 183.313 269.723 216.422 250.607 249.531 269.723 216.422 288.838"/><polygon fill="none" stroke="#21313c" stroke-linecap="round" stroke-linejoin="round" points="216.422 365.3 249.531 384.416 216.422 403.531 183.313 384.416 216.422 365.3"/><polygon fill="none" stroke="#21313c" stroke-linecap="round" stroke-linejoin="round" points="216.422 250.607 249.531 231.492 282.64 250.607 249.531 269.723 216.422 250.607"/><polygon fill="none" stroke="#21313c" stroke-linecap="round" stroke-linejoin="round" points="50.877 384.416 17.768 365.3 50.877 346.185 83.986 365.3 50.877 384.416"/><polygon fill="none" stroke="#21313c" stroke-linecap="round" stroke-linejoin="round" points="83.986 288.838 51.06 269.828 84.169 250.713 117.095 269.723 83.986 288.838"/><polygon fill="none" stroke="#21313c" stroke-linecap="round" stroke-linejoin="round" points="348.858 250.607 349.041 250.501 382.12 269.635 381.967 269.723 348.858 250.607"/><polygon fill="none" stroke="#21313c" stroke-linecap="round" stroke-linejoin="round" points="315.749 231.492 315.963 231.368 349.041 250.501 348.858 250.607 315.749 231.492"/><polygon fill="none" stroke="#21313c" stroke-linecap="round" stroke-linejoin="round" points="117.095 269.723 84.169 250.713 117.278 231.597 150.204 250.607 117.095 269.723"/><polygon fill="none" stroke="#21313c" stroke-linecap="round" stroke-linejoin="round" points="282.64 212.376 282.884 212.235 315.963 231.368 315.749 231.492 282.64 212.376"/><polygon fill="none" stroke="#21313c" stroke-linecap="round" stroke-linejoin="round" points="183.313 231.492 150.387 212.482 183.496 193.366 216.422 212.376 183.313 231.492"/><polygon fill="none" stroke="#21313c" stroke-linecap="round" stroke-linejoin="round" points="150.204 250.607 117.278 231.597 150.387 212.482 183.313 231.492 150.204 250.607"/><polygon fill="none" stroke="#21313c" stroke-linecap="round" stroke-linejoin="round" points="249.531 193.261 249.806 193.102 282.884 212.235 282.64 212.376 249.531 193.261"/><polygon fill="none" stroke="#21313c" stroke-linecap="round" stroke-linejoin="round" points="216.605 174.251 216.91 174.075 249.806 193.102 249.531 193.261 216.605 174.251"/><polygon fill="none" stroke="#21313c" stroke-linecap="round" stroke-linejoin="round" points="216.422 212.376 183.496 193.366 216.605 174.251 249.531 193.261 216.422 212.376"/><polygon fill="none" stroke="#21313c" stroke-linecap="round" stroke-linejoin="round" points="348.858 365.3 381.967 384.416 348.858 403.531 315.749 384.416 348.858 365.3"/><polygon fill="none" stroke="#21313c" stroke-linecap="round" stroke-linejoin="round" points="381.967 346.185 415.076 365.3 381.967 384.416 348.858 365.3 381.967 346.185"/><polygon fill="none" stroke="#21313c" stroke-linecap="round" stroke-linejoin="round" points="348.858 288.838 381.967 269.723 415.076 288.838 381.967 307.954 348.858 288.838"/><polygon fill="none" stroke="#21313c" stroke-linecap="round" stroke-linejoin="round" points="315.749 269.723 348.858 250.607 381.967 269.723 348.858 288.838 315.749 269.723"/><polygon fill="none" stroke="#21313c" stroke-linecap="round" stroke-linejoin="round" points="282.64 250.607 315.749 231.492 348.858 250.607 315.749 269.723 282.64 250.607"/><polygon fill="#21313c" stroke="#0c1c27" stroke-linecap="round" stroke-linejoin="round" points="261.447 213.302 261.667 283.991 254.638 287.835 254.418 217.147 261.447 213.302"/><polygon fill="#21313c" stroke="#0c1c27" stroke-linecap="round" stroke-linejoin="round" points="254.638 287.835 247.829 283.878 247.67 213.225 254.418 217.147 254.638 287.835"/><polygon fill="#21313c" stroke="#0c1c27" stroke-linecap="round" stroke-linejoin="round" points="247.609 213.169 254.418 217.126 261.447 213.282 254.638 209.325 247.609 213.169"/><polygon fill="#21313c" stroke="#0c1c27" stroke-linecap="round" stroke-linejoin="round" points="323.844 176.265 324.065 246.953 317.035 250.798 316.815 180.109 323.844 176.265"/><polygon fill="#21313c" stroke="#0c1c27" stroke-linecap="round" stroke-linejoin="round" points="317.035 250.798 310.227 246.841 310.067 176.188 316.815 180.109 317.035 250.798"/><polygon fill="#21313c" stroke="#0c1c27" stroke-linecap="round" stroke-linejoin="round" points="310.006 176.131 316.815 180.088 323.844 176.244 317.035 172.287 310.006 176.131"/><polygon fill="#21313c" stroke="#0c1c27" stroke-linecap="round" stroke-linejoin="round" points="315.146 83.568 315.366 172.4 311.851 174.323 311.631 85.49 315.146 83.568"/><polygon fill="#21313c" stroke="#0c1c27" stroke-linecap="round" stroke-linejoin="round" points="311.851 174.323 305.042 170.366 304.883 81.568 311.631 85.49 311.851 174.323"/><polygon fill="#21313c" stroke="#0c1c27" stroke-linecap="round" stroke-linejoin="round" points="274.567 68.313 274.787 157.145 271.272 159.067 271.052 70.235 274.567 68.313"/><polygon fill="#21313c" stroke="#0c1c27" stroke-linecap="round" stroke-linejoin="round" points="271.272 159.067 264.463 155.111 264.304 66.313 271.052 70.235 271.272 159.067"/><polygon fill="#21313c" stroke="#0c1c27" stroke-linecap="round" stroke-linejoin="round" points="174.995 215.981 175.216 334.752 168.186 338.596 167.966 219.826 174.995 215.981"/><polygon fill="#21313c" stroke="#0c1c27" stroke-linecap="round" stroke-linejoin="round" points="168.186 338.596 161.378 334.639 161.218 215.904 167.966 219.826 168.186 338.596"/><polygon fill="#21313c" stroke="#0c1c27" stroke-linecap="round" stroke-linejoin="round" points="161.157 215.848 167.966 219.805 174.995 215.96 168.186 212.004 161.157 215.848"/><polygon fill="#21313c" stroke="#0c1c27" stroke-linecap="round" stroke-linejoin="round" points="64.323 151.644 64.543 270.415 57.514 274.259 57.293 155.488 64.323 151.644"/><polygon fill="#21313c" stroke="#0c1c27" stroke-linecap="round" stroke-linejoin="round" points="57.514 274.259 50.705 270.302 50.546 151.567 57.293 155.488 57.514 274.259"/><polygon fill="#21313c" stroke="#0c1c27" stroke-linecap="round" stroke-linejoin="round" points="50.484 151.511 57.293 155.468 64.323 151.623 57.514 147.667 50.484 151.511"/><polygon fill="#21313c" stroke="#0c1c27" stroke-linecap="round" stroke-linejoin="round" points="126.688 114.256 126.908 233.026 119.879 236.871 119.659 118.1 126.688 114.256"/><polygon fill="#21313c" stroke="#0c1c27" stroke-linecap="round" stroke-linejoin="round" points="119.879 236.871 113.07 232.914 112.911 114.179 119.659 118.1 119.879 236.871"/><polygon fill="#21313c" stroke="#0c1c27" stroke-linecap="round" stroke-linejoin="round" points="112.85 114.123 119.659 118.08 126.688 114.235 119.879 110.278 112.85 114.123"/><path fill="url(#linear-gradient)" stroke="#0c1c27" stroke-linecap="round" stroke-linejoin="round" d="M323.17314,174.92034a1.31392,1.31392,0,0,1,.014,2.48343l-66.81909,38.831a4.74134,4.74134,0,0,1-4.28742,0l-73.10005-42.51014a1.31391,1.31391,0,0,1-.014-2.48343l66.81909-38.831a4.74139,4.74139,0,0,1,4.2874,0Z"/><path fill="url(#linear-gradient-2)" stroke="#0c1c27" stroke-linecap="round" stroke-linejoin="round" d="M323.18714,177.40377l-66.81914,38.831a4.7412,4.7412,0,0,1-4.28738,0l-73.10008-42.51015a1.51457,1.51457,0,0,1-.89141-1.25043l-.0187,6.58887a1.51464,1.51464,0,0,0,.89147,1.25042l73.1,42.51018a4.74139,4.74139,0,0,0,4.28743-.00005l66.81908-38.831a1.50281,1.50281,0,0,0,.87746-1.233l.01864-6.58886A1.50277,1.50277,0,0,1,323.18714,177.40377Z"/><path fill="url(#linear-gradient-3)" stroke="#0c1c27" stroke-linecap="round" stroke-linejoin="round" d="M209.77266,100.47625l-66.81913,38.831a4.7412,4.7412,0,0,1-4.28738,0l-31.93677-18.53078a1.51458,1.51458,0,0,1-.89142-1.25042l-.01869,6.58887a1.51462,1.51462,0,0,0,.89146,1.25042l31.93672,18.5308a4.74139,4.74139,0,0,0,4.28743,0l66.81909-38.831a1.50281,1.50281,0,0,0,.87745-1.233l.01865-6.58886A1.50278,1.50278,0,0,1,209.77266,100.47625Z"/><polygon fill="#21313c" stroke="#0c1c27" stroke-linecap="round" stroke-linejoin="round" points="237.361 178.593 237.581 297.364 230.552 301.208 230.332 182.437 237.361 178.593"/><polygon fill="#21313c" stroke="#0c1c27" stroke-linecap="round" stroke-linejoin="round" points="230.552 301.208 223.743 297.251 223.584 178.516 230.332 182.437 230.552 301.208"/><polygon fill="#21313c" stroke="#0c1c27" stroke-linecap="round" stroke-linejoin="round" points="223.523 178.46 230.332 182.417 237.361 178.572 230.552 174.615 223.523 178.46"/><path fill="url(#linear-gradient-4)" stroke="#0c1c27" stroke-linecap="round" stroke-linejoin="round" d="M236.83119,177.57643,156.72359,131.305l53.04907-30.82878a1.31385,1.31385,0,0,0-.014-2.48331L177.82193,79.462a4.74168,4.74168,0,0,0-4.28742,0l-54.66138,31.76578a3.45794,3.45794,0,0,0-.69214.29082l-66.81909,38.831a1.31392,1.31392,0,0,0,.014,2.48342l114.36267,66.058a4.74151,4.74151,0,0,0,4.28753,0l66.8191-38.831A1.314,1.314,0,0,0,236.83119,177.57643Z"/><path fill="url(#linear-gradient-5)" stroke="#0c1c27" stroke-linecap="round" stroke-linejoin="round" d="M236.84513,180.05994,170.026,218.891a4.7412,4.7412,0,0,1-4.28738,0L51.37587,152.833a1.51456,1.51456,0,0,1-.89141-1.25042l-.0187,6.58886a1.51463,1.51463,0,0,0,.89147,1.25042l114.36269,66.058a4.74139,4.74139,0,0,0,4.28743-.00005l66.81908-38.831a1.5028,1.5028,0,0,0,.87746-1.233l.01865-6.58886A1.5028,1.5028,0,0,1,236.84513,180.05994Z"/><g style="isolation:isolate"><path fill="url(#linear-gradient-6)" stroke="#0c1c27" stroke-linecap="round" stroke-linejoin="round" d="M321.695,83.9167a4.741,4.741,0,0,1,2.14243,3.71229l-.2191,53.58409c-.00385,1.35944-.97463,1.91265-2.15644,1.23033l-68.252-38.90989a4.741,4.741,0,0,1-2.14239-3.71226l.21909-53.58409c.00386-1.35944.97463-1.91265,2.15641-1.23036Z"/><path fill="url(#linear-gradient-7)" stroke="#0c1c27" stroke-linecap="round" stroke-linejoin="round" d="M327.3918,80.60608l-68.252-38.90989a1.513,1.513,0,0,0-1.52713-.14632l-5.69681,3.31061a1.51306,1.51306,0,0,1,1.52714.14632l68.252,38.9099a4.741,4.741,0,0,1,2.14243,3.71229l-.21909,53.58411a1.50309,1.50309,0,0,1-.62926,1.37662l5.69681-3.31062a1.503,1.503,0,0,0,.62925-1.37661l.21909-53.58411A4.74105,4.74105,0,0,0,327.3918,80.60608Z"/></g><rect width="1.575" height="15.577" x="203.788" y="151.357" fill="url(#linear-gradient-8)" stroke="#0c1c27" stroke-linecap="round" stroke-linejoin="round"/><path fill="url(#linear-gradient-9)" stroke="#0c1c27" stroke-linecap="round" stroke-linejoin="round" d="M204.79585,165.83129a.83514.83514,0,0,1,.00888,1.5785L161.38949,192.4746a3.01366,3.01366,0,0,1-2.72515,0L96.2038,156.413a.83515.83515,0,0,1-.00888-1.57851l43.41525-25.06481a3.01367,3.01367,0,0,1,2.72514,0Z"/><path fill="url(#linear-gradient-10)" stroke="#0c1c27" stroke-linecap="round" stroke-linejoin="round" d="M203.22992,152.3097l-41.84045,24.32a3.01357,3.01357,0,0,1-2.72512,0L97.31952,141.18547a.96268.96268,0,0,1-.5666-.79479L96.741,153.65074a.96271.96271,0,0,0,.56662.79479l61.3448,35.44427a3.01368,3.01368,0,0,0,2.72516,0l41.84042-24.32a.95517.95517,0,0,0,.55772-.78372l.01186-13.26005A.9552.9552,0,0,1,203.22992,152.3097Z"/><path fill="url(#linear-gradient-11)" stroke="#0c1c27" stroke-linecap="round" stroke-linejoin="round" d="M204.79585,150.8936a.83514.83514,0,0,1,.00888,1.5785l-43.41524,25.06482a3.01369,3.01369,0,0,1-2.72515,0L96.2038,141.47533a.83515.83515,0,0,1-.00888-1.57851L139.61017,114.832a3.0137,3.0137,0,0,1,2.72514,0Z"/><path fill="none" stroke="#0c1c27" stroke-linecap="round" stroke-linejoin="round" d="M97.30766,151.37417l61.3448,35.44427a3.01368,3.01368,0,0,0,2.72516,0l41.84042-24.32"/><polygon fill="url(#linear-gradient-12)" stroke="#0c1c27" stroke-linecap="round" stroke-linejoin="round" points="176.115 175.52 188.064 168.508 188.064 182.754 182.577 180.533 176.115 189.765 176.115 175.52"/><path fill="none" stroke="#0c1c27" stroke-linecap="round" stroke-linejoin="round" d="M97.30766,145.64425l61.3448,35.44428a3.01374,3.01374,0,0,0,2.72516,0l41.84042-24.32"/><path fill="none" stroke="#0c1c27" stroke-linecap="round" stroke-linejoin="round" d="M97.30766,148.50921l61.3448,35.44428a3.01371,3.01371,0,0,0,2.72516,0l41.84042-24.32"/><path fill="url(#linear-gradient-13)" stroke="#0c1c27" stroke-linecap="round" stroke-linejoin="round" d="M129.90342,149.34058a.7318.7318,0,0,0-.00779,1.38318l24.718,13.79841a2.64078,2.64078,0,0,0,2.38795,0l27.16329-15.6204a.73181.73181,0,0,0,.00778-1.38319l-24.718-13.79841a2.64082,2.64082,0,0,0-2.38794,0Z"/><line x1="144.33" x2="127.32" y1="131.19" y2="141.188" fill="url(#linear-gradient-14)" stroke="#0c1c27" stroke-linecap="round" stroke-linejoin="round"/></g></svg>