<svg xmlns="http://www.w3.org/2000/svg" xmlns:xlink="http://www.w3.org/1999/xlink" id="dh_-_speakers" data-name="dh - speakers" viewBox="0 0 258 258"><defs><linearGradient id="linear-gradient" x1="53.684" x2="74.964" y1="131.196" y2="131.196" gradientUnits="userSpaceOnUse"><stop offset="0" stop-color="#f87216"/><stop offset="1" stop-color="#d24f93"/></linearGradient><linearGradient id="linear-gradient-2" x1="45.224" x2="83.423" y1="151.385" y2="151.385" xlink:href="#linear-gradient"/><linearGradient id="linear-gradient-3" x1="50.385" x2="71.665" y1="131.196" y2="131.196" xlink:href="#linear-gradient"/><linearGradient id="linear-gradient-4" x1="41.925" x2="80.124" y1="151.385" y2="151.385" xlink:href="#linear-gradient"/><linearGradient id="linear-gradient-5" x1="194.593" x2="216.873" y1="131.196" y2="131.196" gradientUnits="userSpaceOnUse"><stop offset="0" stop-color="#7dc5db"/><stop offset="1" stop-color="#6e60f9"/></linearGradient><linearGradient id="linear-gradient-6" x1="186.134" x2="225.332" y1="151.385" y2="151.385" xlink:href="#linear-gradient-5"/><linearGradient id="linear-gradient-7" x1="182.834" x2="222.032" y1="151.385" y2="151.385" xlink:href="#linear-gradient-5"/><linearGradient id="linear-gradient-8" x1="191.294" x2="213.573" y1="131.196" y2="131.196" xlink:href="#linear-gradient-5"/><linearGradient id="linear-gradient-9" x1="111.112" x2="139.318" y1="155.986" y2="155.986" gradientUnits="userSpaceOnUse"><stop offset="0" stop-color="#7accda"/><stop offset="1" stop-color="#0ad05b"/></linearGradient><linearGradient id="linear-gradient-10" x1="99.899" x2="150.531" y1="182.747" y2="182.747" xlink:href="#linear-gradient-9"/><linearGradient id="linear-gradient-11" x1="106.739" x2="134.945" y1="155.986" y2="155.986" xlink:href="#linear-gradient-9"/><linearGradient id="linear-gradient-12" x1="95.527" x2="146.158" y1="182.747" y2="182.747" xlink:href="#linear-gradient-9"/><linearGradient id="linear-gradient-13" x1="99.755" x2="163.345" y1="87.955" y2="87.955" xlink:href="#linear-gradient-9"/><linearGradient id="linear-gradient-14" x1="129.176" x2="129.908" y1="130.202" y2="130.202" gradientUnits="userSpaceOnUse"><stop offset="0" stop-color="#0ad05b"/><stop offset="1" stop-color="#7accda"/></linearGradient><linearGradient id="linear-gradient-15" x1="129.089" x2="138.52" y1="126.205" y2="126.205" xlink:href="#linear-gradient-9"/><linearGradient id="linear-gradient-16" x1="102.913" x2="172.331" y1="85.028" y2="85.028" xlink:href="#linear-gradient-14"/><linearGradient id="linear-gradient-17" x1="95.423" x2="143.344" y1="80.398" y2="80.398" gradientUnits="userSpaceOnUse"><stop offset="0" stop-color="#7accda"/><stop offset=".998" stop-color="#6e60f9"/></linearGradient><linearGradient id="linear-gradient-18" x1="143.321" x2="146.089" y1="93.427" y2="93.427" gradientUnits="userSpaceOnUse"><stop offset=".002" stop-color="#6e60f9"/><stop offset="1" stop-color="#7accda"/></linearGradient><linearGradient id="linear-gradient-19" x1="95.446" x2="146.089" y1="75.548" y2="75.548" xlink:href="#linear-gradient-18"/><linearGradient id="linear-gradient-20" x1="95.446" x2="115.435" y1="89.375" y2="89.375" xlink:href="#linear-gradient-17"/><linearGradient id="linear-gradient-21" x1="115.412" x2="118.18" y1="94.341" y2="94.341" xlink:href="#linear-gradient-18"/><linearGradient id="linear-gradient-22" x1="95.469" x2="118.18" y1="84.524" y2="84.524" xlink:href="#linear-gradient-18"/><linearGradient id="linear-gradient-23" x1="120.767" x2="129.897" y1="100.631" y2="100.631" xlink:href="#linear-gradient-17"/><linearGradient id="linear-gradient-24" x1="129.874" x2="132.642" y1="102.462" y2="102.462" xlink:href="#linear-gradient-18"/><linearGradient id="linear-gradient-25" x1="120.79" x2="132.642" y1="95.781" y2="95.781" xlink:href="#linear-gradient-18"/><linearGradient id="linear-gradient-26" x1="62.525" x2="94.398" y1="91.879" y2="91.879" xlink:href="#linear-gradient"/><linearGradient id="linear-gradient-27" x1="252.45" x2="284.324" y1="91.879" y2="91.879" gradientTransform="matrix(-1, 0, 0, 1, 457.02048, 0)" xlink:href="#linear-gradient-5"/><linearGradient id="linear-gradient-28" x1="44.385" x2="75.098" y1="194.406" y2="194.406" xlink:href="#linear-gradient"/><linearGradient id="linear-gradient-29" x1="57.807" x2="64.718" y1="215.373" y2="215.373" xlink:href="#linear-gradient"/><linearGradient id="linear-gradient-30" x1="49.461" x2="77.976" y1="198.938" y2="198.938" xlink:href="#linear-gradient"/><linearGradient id="linear-gradient-31" x1="169.939" x2="182.282" y1="214.255" y2="214.255" xlink:href="#linear-gradient-5"/><linearGradient id="linear-gradient-32" x1="174.613" x2="213.99" y1="198.029" y2="198.029" xlink:href="#linear-gradient-5"/><linearGradient id="linear-gradient-33" x1="175.916" x2="209.857" y1="192.542" y2="192.542" xlink:href="#linear-gradient-5"/></defs><polygon fill="#21313c" stroke="#0c1c27" stroke-linecap="round" stroke-linejoin="round" points="242.969 161.867 242.969 176.654 128.296 241.511 15.031 176.117 15.031 161.33 242.969 161.867"/><polygon fill="#21313c" stroke="#0c1c27" stroke-linecap="round" stroke-linejoin="round" points="128.296 95.936 242.969 161.867 128.296 226.724 15.031 161.33 128.296 95.936"/><line x1="128.296" x2="128.296" y1="226.724" y2="241.511" fill="#21313c" stroke="#0c1c27" stroke-linecap="round" stroke-linejoin="round"/><circle cx="64.324" cy="131.196" r="10.64" fill="url(#linear-gradient)" stroke="#0c1c27" stroke-linecap="round" stroke-linejoin="round"/><path fill="url(#linear-gradient-2)" fill-rule="evenodd" stroke="#0c1c27" stroke-linecap="round" stroke-linejoin="round" d="M45.22441,160.935a19.09915,19.09915,0,1,1,38.19829,0Z"/><circle cx="61.025" cy="131.196" r="10.64" fill="url(#linear-gradient-3)" stroke="#0c1c27" stroke-linecap="round" stroke-linejoin="round"/><path fill="url(#linear-gradient-4)" fill-rule="evenodd" stroke="#0c1c27" stroke-linecap="round" stroke-linejoin="round" d="M41.92539,160.935a19.09915,19.09915,0,0,1,38.1983,0Z"/><path fill="url(#linear-gradient-5)" fill-rule="evenodd" d="M205.73242,142.33594a11.14014,11.14014,0,1,1,11.14063-11.14063A11.1529,11.1529,0,0,1,205.73242,142.33594Z"/><path fill="#0c1c27" d="M205.7326,120.55566a10.64014,10.64014,0,1,1-10.64007,10.64014,10.64005,10.64005,0,0,1,10.64007-10.64014m0-1a11.64014,11.64014,0,1,0,11.64,11.64014,11.65326,11.65326,0,0,0-11.64-11.64014Z"/><path fill="url(#linear-gradient-6)" fill-rule="evenodd" d="M186.63379,161.43457a.49971.49971,0,0,1-.5-.5,19.59912,19.59912,0,0,1,39.19824,0,.49971.49971,0,0,1-.5.5Z"/><path fill="#0c1c27" d="M205.7326,141.83594a19.099,19.099,0,0,1,19.09913,19.09912H186.63342a19.099,19.099,0,0,1,19.09918-19.09912m0-1a20.122,20.122,0,0,0-20.09918,20.09912,1,1,0,0,0,1,1h38.19831a1,1,0,0,0,1-1,20.122,20.122,0,0,0-20.09913-20.09912Z"/><path fill="url(#linear-gradient-7)" fill-rule="evenodd" d="M183.334,161.43457a.49972.49972,0,0,1-.5-.5,19.59913,19.59913,0,0,1,39.19825,0,.49972.49972,0,0,1-.5.5Z"/><path fill="#0c1c27" d="M202.43359,141.83594a19.099,19.099,0,0,1,19.09912,19.09912h-38.1983a19.099,19.099,0,0,1,19.09918-19.09912m0-1a20.122,20.122,0,0,0-20.09918,20.09912,1,1,0,0,0,1,1h38.1983a1,1,0,0,0,1-1,20.122,20.122,0,0,0-20.09912-20.09912Z"/><path fill="url(#linear-gradient-8)" fill-rule="evenodd" d="M202.43359,142.33594a11.14014,11.14014,0,1,1,11.13965-11.14063A11.1529,11.1529,0,0,1,202.43359,142.33594Z"/><path fill="#0c1c27" d="M202.43359,120.55566a10.64014,10.64014,0,1,1-10.64007,10.64014,10.64005,10.64005,0,0,1,10.64007-10.64014m0-1a11.64014,11.64014,0,1,0,11.64,11.64014,11.65326,11.65326,0,0,0-11.64-11.64014Z"/><circle cx="125.215" cy="155.986" r="14.103" fill="url(#linear-gradient-9)" stroke="#0c1c27" stroke-linecap="round" stroke-linejoin="round"/><path fill="url(#linear-gradient-10)" fill-rule="evenodd" stroke="#0c1c27" stroke-linecap="round" stroke-linejoin="round" d="M99.89944,195.40478a25.31555,25.31555,0,0,1,50.6311,0Z"/><circle cx="120.842" cy="155.986" r="14.103" fill="url(#linear-gradient-11)" stroke="#0c1c27" stroke-linecap="round" stroke-linejoin="round"/><path fill="url(#linear-gradient-12)" fill-rule="evenodd" stroke="#0c1c27" stroke-linecap="round" stroke-linejoin="round" d="M95.52666,195.40478a25.31555,25.31555,0,0,1,50.6311,0Z"/><path fill="url(#linear-gradient-13)" stroke="#0c1c27" stroke-linecap="round" stroke-linejoin="round" d="M138.5205,124.98484c2.91808,1.83433,6.04122,3.79083,8.66333,5.33984q.53192.31386,1.071.626c3.521,2.03293,7.18622,3.84162,9.987,3.071,4.32189-1.189,4.88086-7.92721,5.05957-14.00072.0794-2.72384.10942-25.97374-.46125-38.08864-.35217-7.50436-3.89136-10.88387-11.45383-15.95652-4.06466-2.72664-9.04918-5.79359-14.26616-8.80556-14.20945-8.20382-30.14712-16.00364-33.94808-15.43472-1.05565.15881-1.77116,2.88458-2.25388,6.89356-1.32422,10.96833-.91777,31.54115-1.05111,35.392-.18271,5.2559-.59509,12.0341,3.14566,17.38319,2.90831,4.15977,7.35916,7.21694,11.76325,9.75964,2.61285,1.50851,5.20895,2.83571,7.45777,4.10549.46316,6.29234-1.28357,11.56343-4.888,13.92567q.18559.11231.37172.21989c4.2547,2.45632,8.48112,2.82245,11.45819,1.03471a7.23028,7.23028,0,0,0,.7321-.49528c2.097-1.64341,3.37723-4.51909,3.68892-8.05339"/><path fill="url(#linear-gradient-14)" stroke="#0c1c27" stroke-linecap="round" stroke-linejoin="round" d="M129.17569,130.44963a7.20055,7.20055,0,0,0,.7321-.49528A7.23028,7.23028,0,0,1,129.17569,130.44963Z"/><path fill="url(#linear-gradient-15)" stroke="#0c1c27" stroke-linecap="round" stroke-linejoin="round" d="M129.90779,129.95435a7.20055,7.20055,0,0,1-.7321.49528c-.02984.0178-.05654.041-.08656.05864l8.98671-5.22257c.15444-.0897.297-.19964.44466-.30086-1.76924-1.11237-3.46309-2.17971-4.92379-3.08388C133.285,125.43526,132.00477,128.31094,129.90779,129.95435Z"/><path fill="url(#linear-gradient-16)" stroke="#0c1c27" stroke-linecap="round" stroke-linejoin="round" d="M171.82688,76.70969c-.35217-7.50436-3.89136-10.88369-11.45383-15.95652-4.06448-2.72664-9.04918-5.79341-14.26634-8.80538C131.89762,43.744,115.95977,35.944,112.15881,36.5129a.72366.72366,0,0,0-.25863.09354l-8.98688,5.22239a.72893.72893,0,0,1,.25881-.09337c3.801-.56892,19.73863,7.2309,33.94808,15.43472,5.217,3.012,10.2015,6.07892,14.26616,8.80556,7.56247,5.07265,11.10166,8.45216,11.45383,15.95652.57067,12.1149.54065,35.3648.46125,38.08864-.16265,5.52832-.64048,11.60776-3.98438,13.55117l8.98653-5.22257c3.34425-1.94323,3.8219-8.02267,3.98455-13.55116C172.36753,112.07449,172.39755,88.82459,171.82688,76.70969Z"/><g style="isolation:isolate"><polygon fill="url(#linear-gradient-17)" stroke="#0c1c27" stroke-linecap="round" stroke-linejoin="round" points="143.344 90.173 143.321 98.277 95.423 70.623 95.446 62.519 143.344 90.173"/><polygon fill="url(#linear-gradient-18)" stroke="#0c1c27" stroke-linecap="round" stroke-linejoin="round" points="143.344 90.173 146.089 88.577 146.066 96.681 143.321 98.277 143.344 90.173"/><polygon fill="url(#linear-gradient-19)" stroke="#0c1c27" stroke-linecap="round" stroke-linejoin="round" points="95.446 62.519 98.191 60.923 146.089 88.577 143.344 90.173 95.446 62.519"/></g><g style="isolation:isolate"><polygon fill="url(#linear-gradient-20)" stroke="#0c1c27" stroke-linecap="round" stroke-linejoin="round" points="115.435 91.086 115.412 99.192 95.446 87.664 95.469 79.558 115.435 91.086"/><polygon fill="url(#linear-gradient-21)" stroke="#0c1c27" stroke-linecap="round" stroke-linejoin="round" points="115.435 91.086 118.18 89.49 118.157 97.596 115.412 99.192 115.435 91.086"/><polygon fill="url(#linear-gradient-22)" stroke="#0c1c27" stroke-linecap="round" stroke-linejoin="round" points="95.469 79.558 98.214 77.963 118.18 89.49 115.435 91.086 95.469 79.558"/></g><g style="isolation:isolate"><polygon fill="url(#linear-gradient-23)" stroke="#0c1c27" stroke-linecap="round" stroke-linejoin="round" points="129.897 99.208 129.874 107.312 120.767 102.054 120.79 93.95 129.897 99.208"/><polygon fill="url(#linear-gradient-24)" stroke="#0c1c27" stroke-linecap="round" stroke-linejoin="round" points="129.897 99.208 132.642 97.613 132.619 105.717 129.874 107.312 129.897 99.208"/><polygon fill="url(#linear-gradient-25)" stroke="#0c1c27" stroke-linecap="round" stroke-linejoin="round" points="120.79 93.95 123.536 92.355 132.642 97.613 129.897 99.208 120.79 93.95"/></g><path fill="none" fill-rule="evenodd" stroke="url(#linear-gradient-26)" stroke-dasharray="5.516 8.825" stroke-linecap="round" stroke-linejoin="round" d="M63.02454,111.65258A40.76981,40.76981,0,0,1,93.89783,72.10536"/><path fill="none" fill-rule="evenodd" stroke="url(#linear-gradient-27)" stroke-dasharray="5.516 8.825" stroke-linecap="round" stroke-linejoin="round" d="M204.07007,111.65258a40.7698,40.7698,0,0,0-30.87329-39.54722"/><path fill="url(#linear-gradient-28)" stroke="#0c1c27" stroke-linecap="round" stroke-linejoin="round" d="M44.82225,205.94636a5.88459,5.88459,0,0,0,2.65089,3.35194l5.07808,2.95122a5.87628,5.87628,0,0,1-2.65088-3.35965c-1.42543-4.36142.74742-11.412,4.816-17.29151a33.75425,33.75425,0,0,1,10.30254-9.84774,19.08445,19.08445,0,0,1,2.85105-1.3562c3.22091-1.1866,5.5943-1.10966,7.2278-.16188l-5.0779-2.94342c-1.63368-.95559-4.00708-1.03262-7.228.15408a19.87757,19.87757,0,0,0-2.85105,1.3562,33.93382,33.93382,0,0,0-10.30253,9.84783C45.56986,194.52655,43.39682,201.57723,44.82225,205.94636Z"/><path fill="url(#linear-gradient-29)" stroke="#0c1c27" stroke-linecap="round" stroke-linejoin="round" d="M64.71758,218.36207l-5.07579-2.94975L57.80738,213.005a12.84169,12.84169,0,0,0,2.35488-.62112Z"/><path fill="url(#linear-gradient-30)" stroke="#0c1c27" stroke-linecap="round" stroke-linejoin="round" d="M57.80738,213.005c-3.757.61235-6.83237-.83121-7.90705-4.11224-1.42813-4.36286.746-11.41406,4.81444-17.295a33.78866,33.78866,0,0,1,10.30208-9.84513,18.6715,18.6715,0,0,1,2.85107-1.356c11.78809-4.35024,12.2264,8.26837,6.62541,18.44641a35.02426,35.02426,0,0,1-6.25067,8.14005c-1.487,4.45187-3.42322,11.03268-3.52508,11.379l-4.55532-5.97823"/><path fill="url(#linear-gradient-31)" d="M175.11328,219.2959a.49886.49886,0,0,1-.251-.06738l-4.67382-2.71582a.50016.50016,0,0,1,.00195-.86622l.13769-.0791c2.71876-1.57031,4.8379-3.20605,6.33692-6.084a.50093.50093,0,0,1,.30371-.249.52372.52372,0,0,1,.13965-.01954.49613.49613,0,0,1,.251.06739l4.67382,2.71582a.501.501,0,0,1,.19239.66406c-1.61036,3.0918-3.85352,4.8291-6.72461,6.4873l-.13868.08008A.5033.5033,0,0,1,175.11328,219.2959Z"/><path fill="#0c1c27" d="M177.10864,209.71484l4.67365,2.71631a15.14951,15.14951,0,0,1-6.5318,6.28565l-.1369.0791-4.67365-2.71631c.04566-.02588.09143-.05225.1369-.07861a15.15057,15.15057,0,0,0,6.5318-6.28614m0-1a1.00023,1.00023,0,0,0-.88684.53809c-1.44885,2.78027-3.42541,4.312-6.1449,5.88184l-.13012.0747a1.00029,1.00029,0,0,0-.00934,1.73487l4.67364,2.7163a1.00045,1.00045,0,0,0,1.00214.00147l.13879-.08008c2.94556-1.70068,5.24994-3.48926,6.91712-6.689a1.0001,1.0001,0,0,0-.38434-1.32666l-4.67364-2.71631a1.00161,1.00161,0,0,0-.50251-.13526Z"/><path fill="url(#linear-gradient-32)" d="M179.01172,221.1875a6.27928,6.27928,0,0,1-4.23731-2.02441.49935.49935,0,0,1,.08985-.80079l.13281-.07714a14.81607,14.81607,0,0,0,6.24219-5.89844c-.04785-.14844-.09375-.29883-.13672-.45313-1.59863-5.80078.62207-14.91894,5.52734-22.68847a36.83029,36.83029,0,0,1,11.88867-12.06739,18.458,18.458,0,0,1,3.332-1.53027,13.484,13.484,0,0,1,4.25-.77734,6.91292,6.91292,0,0,1,6.17675,3.34472c2.96192,4.77735,2.00586,14.50489-2.27343,23.12989-3.17969,6.4082-8.30176,12.20605-13.36719,15.13086a18.70681,18.70681,0,0,1-2.4043,1.17675,12.565,12.565,0,0,1-4.64453.95313,8.72657,8.72657,0,0,1-4.37793-1.10254,16.3609,16.3609,0,0,1-3.42285,2.85352,5.49639,5.49639,0,0,1-2.77539.83105Z"/><path fill="#0c1c27" d="M206.1004,175.36963c9.34168,0,9.096,14.38574,3.45551,25.75195-3.1499,6.34815-8.14313,12.01953-13.16883,14.9209a18.06422,18.06422,0,0,1-2.33978,1.14453,12.09239,12.09239,0,0,1-4.46032.91846,8.20684,8.20684,0,0,1-4.46314-1.23779,16.70858,16.70858,0,0,1-3.587,3.05664,5.02616,5.02616,0,0,1-2.52448.76318,5.84859,5.84859,0,0,1-3.8988-1.8916l.1369-.0791a15.14951,15.14951,0,0,0,6.5318-6.28565c-.071-.20459-.1377-.41357-.19684-.62988-1.62653-5.89893.84216-14.96289,5.46759-22.29a36.31541,36.31541,0,0,1,11.71515-11.90088,18.0067,18.0067,0,0,1,3.24127-1.48926,12.94979,12.94979,0,0,1,4.09094-.75146m0-1a13.9974,13.9974,0,0,0-4.4093.80371,19.03251,19.03251,0,0,0-3.42279,1.5708,37.358,37.358,0,0,0-12.06085,12.2334c-4.97583,7.88232-7.2207,17.16113-5.58606,23.08935q.03681.13478.07715.26661a14.29587,14.29587,0,0,1-5.948,5.51709l-.13648.0791a.99994.99994,0,0,0-.17822,1.60156,6.737,6.737,0,0,0,4.57654,2.15625,5.98583,5.98583,0,0,0,3.02441-.897,15.86222,15.86222,0,0,0,3.26874-2.66992,9.45394,9.45394,0,0,0,4.28144.98486,13.06151,13.06151,0,0,0,4.83062-.98975,19.07578,19.07578,0,0,0,2.46942-1.207c5.223-3.01562,10.29395-8.751,13.5647-15.34277,4.42169-8.90967,5.34723-18.62061,2.25067-23.61426a7.39182,7.39182,0,0,0-6.602-3.582Z"/><path fill="url(#linear-gradient-33)" d="M181.78223,212.93066a.50417.50417,0,0,1-.251-.06738l-4.67383-2.71582a.49888.49888,0,0,1-.22168-.26953c-.07422-.21484-.14453-.43457-.20605-.66211-1.59961-5.79883.62109-14.917,5.52636-22.6875a36.83605,36.83605,0,0,1,11.88868-12.06641,18.45789,18.45789,0,0,1,3.332-1.53027,13.48479,13.48479,0,0,1,4.251-.77734,7.37973,7.37973,0,0,1,3.75586.94043l4.67383,2.71679-.50195.86524a6.39188,6.39188,0,0,0-3.25586-.80664,12.5314,12.5314,0,0,0-3.93066.72461,17.551,17.551,0,0,0-3.1504,1.44824,35.80993,35.80993,0,0,0-11.543,11.73535c-4.76368,7.54688-6.9375,16.34277-5.40821,21.88965.05664.20605.11914.4043.18653.59765a.49948.49948,0,0,1-.47168.665Z"/><path fill="#0c1c27" d="M201.42725,172.65381a6.85626,6.85626,0,0,1,3.50567.874l4.67371,2.71582a6.85807,6.85807,0,0,0-3.50623-.874,12.94892,12.94892,0,0,0-4.09094.75146,18.0067,18.0067,0,0,0-3.24127,1.48926A36.31541,36.31541,0,0,0,187.053,189.51123c-4.62543,7.32715-7.09412,16.39111-5.46759,22.29.05914.21631.12585.42529.19684.62988l-4.67365-2.71582c-.07092-.20508-.13775-.41406-.19684-.63037-1.62652-5.89844.84217-14.9624,5.46759-22.28955a36.30553,36.30553,0,0,1,11.71515-11.90088,17.9711,17.9711,0,0,1,3.24128-1.48926,12.95249,12.95249,0,0,1,4.09143-.75146m0-1a13.98838,13.98838,0,0,0-4.40979.80371,18.96251,18.96251,0,0,0-3.4231,1.57129,37.34133,37.34133,0,0,0-12.06061,12.23291c-4.97583,7.88232-7.22064,17.16113-5.586,23.08887.0644.23584.13776.46582.21582.6914a1.00111,1.00111,0,0,0,.44263.53809l4.67365,2.71582a1,1,0,0,0,1.4472-1.19238c-.06378-.18409-.12384-.37159-.177-.56592-1.49475-5.4209.655-14.05713,5.34863-21.49268a35.30838,35.30838,0,0,1,11.36963-11.56836,17.05856,17.05856,0,0,1,3.05975-1.40771,12.0277,12.0277,0,0,1,3.77234-.69922,5.90005,5.90005,0,0,1,3.00385.73877,1.0001,1.0001,0,0,0,1.00482-1.72949l-4.67371-2.71582a7.868,7.868,0,0,0-4.00811-1.00928Z"/></svg>